<svg width="23" height="22" viewBox="0 0 23 22" fill="none" xmlns="http://www.w3.org/2000/svg">
<path fill-rule="evenodd" clip-rule="evenodd" d="M11.4143 21.9177C17.2676 21.9389 22.0297 17.2263 22.051 11.3917L19.6958 11.3831C19.6793 15.9211 15.9754 19.5865 11.4228 19.5701C6.87032 19.5536 3.19319 15.8614 3.20972 11.3234C3.22626 6.78544 6.93021 3.12003 11.4827 3.13651C12.792 3.14125 14.0288 3.45 15.1262 3.99545L16.7037 2.17444C15.1666 1.29886 13.388 0.795733 11.4913 0.788865C5.63805 0.76767 0.875829 5.48034 0.854566 11.3149C0.833302 17.1495 5.56105 21.8965 11.4143 21.9177ZM19.4078 7.47192C19.8446 6.99163 19.8081 6.24929 19.3263 5.81386C18.8445 5.37844 18.0998 5.41481 17.6629 5.8951L11.0506 13.1654L8.75719 10.8476C8.30048 10.386 7.55489 10.3809 7.09187 10.8362C6.62884 11.2914 6.62371 12.0346 7.08041 12.4962L10.2483 15.6977C10.4756 15.9274 10.7878 16.0538 11.1115 16.047C11.4351 16.0402 11.7417 15.9009 11.9591 15.6619L19.4078 7.47192Z" fill="#EC8A90"/>
</svg>
