<svg width="907" height="190" viewBox="0 0 907 190" fill="none" xmlns="http://www.w3.org/2000/svg">
<g opacity="0.5">
<path d="M118 0.599991V149H88.2V136.6C80.4667 145.933 69.2667 150.6 54.6 150.6C44.4667 150.6 35.2667 148.333 27 143.8C18.8667 139.267 12.4667 132.8 7.8 124.4C3.13333 116 0.8 106.267 0.8 95.2C0.8 84.1333 3.13333 74.4 7.8 66C12.4667 57.6 18.8667 51.1333 27 46.6C35.2667 42.0667 44.4667 39.8 54.6 39.8C68.3333 39.8 79.0667 44.1333 86.8 52.8V0.599991H118ZM60 125C67.8667 125 74.4 122.333 79.6 117C84.8 111.533 87.4 104.267 87.4 95.2C87.4 86.1333 84.8 78.9333 79.6 73.6C74.4 68.1333 67.8667 65.4 60 65.4C52 65.4 45.4 68.1333 40.2 73.6C35 78.9333 32.4 86.1333 32.4 95.2C32.4 104.267 35 111.533 40.2 117C45.4 122.333 52 125 60 125ZM279.677 41.4L231.077 155.6C226.143 168 220.01 176.733 212.677 181.8C205.477 186.867 196.743 189.4 186.477 189.4C180.877 189.4 175.343 188.533 169.877 186.8C164.41 185.067 159.943 182.667 156.477 179.6L167.877 157.4C170.277 159.533 173.01 161.2 176.077 162.4C179.277 163.6 182.41 164.2 185.477 164.2C189.743 164.2 193.21 163.133 195.877 161C198.543 159 200.943 155.6 203.077 150.8L203.477 149.8L156.877 41.4H189.077L219.277 114.4L249.677 41.4H279.677ZM353.045 150.6C344.112 150.6 335.379 149.533 326.845 147.4C318.312 145.133 311.512 142.333 306.445 139L316.845 116.6C321.645 119.667 327.445 122.2 334.245 124.2C341.045 126.067 347.712 127 354.245 127C367.445 127 374.045 123.733 374.045 117.2C374.045 114.133 372.245 111.933 368.645 110.6C365.045 109.267 359.512 108.133 352.045 107.2C343.245 105.867 335.979 104.333 330.245 102.6C324.512 100.867 319.512 97.8 315.245 93.4C311.112 89 309.045 82.7333 309.045 74.6C309.045 67.8 310.979 61.8 314.845 56.6C318.845 51.2667 324.579 47.1333 332.045 44.2C339.645 41.2667 348.579 39.8 358.845 39.8C366.445 39.8 373.979 40.6667 381.445 42.4C389.045 44 395.312 46.2667 400.245 49.2L389.845 71.4C380.379 66.0667 370.045 63.4 358.845 63.4C352.179 63.4 347.179 64.3333 343.845 66.2C340.512 68.0667 338.845 70.4667 338.845 73.4C338.845 76.7333 340.645 79.0667 344.245 80.4C347.845 81.7333 353.579 83 361.445 84.2C370.245 85.6667 377.445 87.2667 383.045 89C388.645 90.6 393.512 93.6 397.645 98C401.779 102.4 403.845 108.533 403.845 116.4C403.845 123.067 401.845 129 397.845 134.2C393.845 139.4 387.979 143.467 380.245 146.4C372.645 149.2 363.579 150.6 353.045 150.6ZM449.095 0.599991H480.295V149H449.095V0.599991ZM640.652 95.6C640.652 96 640.452 98.8 640.052 104H558.652C560.118 110.667 563.585 115.933 569.052 119.8C574.518 123.667 581.318 125.6 589.452 125.6C595.052 125.6 599.985 124.8 604.252 123.2C608.652 121.467 612.718 118.8 616.452 115.2L633.052 133.2C622.918 144.8 608.118 150.6 588.652 150.6C576.518 150.6 565.785 148.267 556.452 143.6C547.118 138.8 539.918 132.2 534.852 123.8C529.785 115.4 527.252 105.867 527.252 95.2C527.252 84.6667 529.718 75.2 534.652 66.8C539.718 58.2667 546.585 51.6667 555.252 47C564.052 42.2 573.852 39.8 584.652 39.8C595.185 39.8 604.718 42.0667 613.252 46.6C621.785 51.1333 628.452 57.6667 633.252 66.2C638.185 74.6 640.652 84.4 640.652 95.6ZM584.852 63.4C577.785 63.4 571.852 65.4 567.052 69.4C562.252 73.4 559.318 78.8667 558.252 85.8H611.252C610.185 79 607.252 73.6 602.452 69.6C597.652 65.4667 591.785 63.4 584.852 63.4ZM723.623 150.6C714.69 150.6 705.957 149.533 697.423 147.4C688.89 145.133 682.09 142.333 677.023 139L687.423 116.6C692.223 119.667 698.023 122.2 704.823 124.2C711.623 126.067 718.29 127 724.823 127C738.023 127 744.623 123.733 744.623 117.2C744.623 114.133 742.823 111.933 739.223 110.6C735.623 109.267 730.09 108.133 722.623 107.2C713.823 105.867 706.557 104.333 700.823 102.6C695.09 100.867 690.09 97.8 685.823 93.4C681.69 89 679.623 82.7333 679.623 74.6C679.623 67.8 681.557 61.8 685.423 56.6C689.423 51.2667 695.157 47.1333 702.623 44.2C710.223 41.2667 719.157 39.8 729.423 39.8C737.023 39.8 744.557 40.6667 752.023 42.4C759.623 44 765.89 46.2667 770.823 49.2L760.423 71.4C750.957 66.0667 740.623 63.4 729.423 63.4C722.757 63.4 717.757 64.3333 714.423 66.2C711.09 68.0667 709.423 70.4667 709.423 73.4C709.423 76.7333 711.223 79.0667 714.823 80.4C718.423 81.7333 724.157 83 732.023 84.2C740.823 85.6667 748.023 87.2667 753.623 89C759.223 90.6 764.09 93.6 768.223 98C772.357 102.4 774.423 108.533 774.423 116.4C774.423 123.067 772.423 129 768.423 134.2C764.423 139.4 758.557 143.467 750.823 146.4C743.223 149.2 734.157 150.6 723.623 150.6ZM855.873 150.6C846.94 150.6 838.207 149.533 829.673 147.4C821.14 145.133 814.34 142.333 809.273 139L819.673 116.6C824.473 119.667 830.273 122.2 837.073 124.2C843.873 126.067 850.54 127 857.073 127C870.273 127 876.873 123.733 876.873 117.2C876.873 114.133 875.073 111.933 871.473 110.6C867.873 109.267 862.34 108.133 854.873 107.2C846.073 105.867 838.807 104.333 833.073 102.6C827.34 100.867 822.34 97.8 818.073 93.4C813.94 89 811.873 82.7333 811.873 74.6C811.873 67.8 813.807 61.8 817.673 56.6C821.673 51.2667 827.407 47.1333 834.873 44.2C842.473 41.2667 851.407 39.8 861.673 39.8C869.273 39.8 876.807 40.6667 884.273 42.4C891.873 44 898.14 46.2667 903.073 49.2L892.673 71.4C883.207 66.0667 872.873 63.4 861.673 63.4C855.007 63.4 850.007 64.3333 846.673 66.2C843.34 68.0667 841.673 70.4667 841.673 73.4C841.673 76.7333 843.473 79.0667 847.073 80.4C850.673 81.7333 856.407 83 864.273 84.2C873.073 85.6667 880.273 87.2667 885.873 89C891.473 90.6 896.34 93.6 900.473 98C904.607 102.4 906.673 108.533 906.673 116.4C906.673 123.067 904.673 129 900.673 134.2C896.673 139.4 890.807 143.467 883.073 146.4C875.473 149.2 866.407 150.6 855.873 150.6Z" fill="white" fill-opacity="0.8"/>
<path d="M118 0.599991V149H88.2V136.6C80.4667 145.933 69.2667 150.6 54.6 150.6C44.4667 150.6 35.2667 148.333 27 143.8C18.8667 139.267 12.4667 132.8 7.8 124.4C3.13333 116 0.8 106.267 0.8 95.2C0.8 84.1333 3.13333 74.4 7.8 66C12.4667 57.6 18.8667 51.1333 27 46.6C35.2667 42.0667 44.4667 39.8 54.6 39.8C68.3333 39.8 79.0667 44.1333 86.8 52.8V0.599991H118ZM60 125C67.8667 125 74.4 122.333 79.6 117C84.8 111.533 87.4 104.267 87.4 95.2C87.4 86.1333 84.8 78.9333 79.6 73.6C74.4 68.1333 67.8667 65.4 60 65.4C52 65.4 45.4 68.1333 40.2 73.6C35 78.9333 32.4 86.1333 32.4 95.2C32.4 104.267 35 111.533 40.2 117C45.4 122.333 52 125 60 125ZM279.677 41.4L231.077 155.6C226.143 168 220.01 176.733 212.677 181.8C205.477 186.867 196.743 189.4 186.477 189.4C180.877 189.4 175.343 188.533 169.877 186.8C164.41 185.067 159.943 182.667 156.477 179.6L167.877 157.4C170.277 159.533 173.01 161.2 176.077 162.4C179.277 163.6 182.41 164.2 185.477 164.2C189.743 164.2 193.21 163.133 195.877 161C198.543 159 200.943 155.6 203.077 150.8L203.477 149.8L156.877 41.4H189.077L219.277 114.4L249.677 41.4H279.677ZM353.045 150.6C344.112 150.6 335.379 149.533 326.845 147.4C318.312 145.133 311.512 142.333 306.445 139L316.845 116.6C321.645 119.667 327.445 122.2 334.245 124.2C341.045 126.067 347.712 127 354.245 127C367.445 127 374.045 123.733 374.045 117.2C374.045 114.133 372.245 111.933 368.645 110.6C365.045 109.267 359.512 108.133 352.045 107.2C343.245 105.867 335.979 104.333 330.245 102.6C324.512 100.867 319.512 97.8 315.245 93.4C311.112 89 309.045 82.7333 309.045 74.6C309.045 67.8 310.979 61.8 314.845 56.6C318.845 51.2667 324.579 47.1333 332.045 44.2C339.645 41.2667 348.579 39.8 358.845 39.8C366.445 39.8 373.979 40.6667 381.445 42.4C389.045 44 395.312 46.2667 400.245 49.2L389.845 71.4C380.379 66.0667 370.045 63.4 358.845 63.4C352.179 63.4 347.179 64.3333 343.845 66.2C340.512 68.0667 338.845 70.4667 338.845 73.4C338.845 76.7333 340.645 79.0667 344.245 80.4C347.845 81.7333 353.579 83 361.445 84.2C370.245 85.6667 377.445 87.2667 383.045 89C388.645 90.6 393.512 93.6 397.645 98C401.779 102.4 403.845 108.533 403.845 116.4C403.845 123.067 401.845 129 397.845 134.2C393.845 139.4 387.979 143.467 380.245 146.4C372.645 149.2 363.579 150.6 353.045 150.6ZM449.095 0.599991H480.295V149H449.095V0.599991ZM640.652 95.6C640.652 96 640.452 98.8 640.052 104H558.652C560.118 110.667 563.585 115.933 569.052 119.8C574.518 123.667 581.318 125.6 589.452 125.6C595.052 125.6 599.985 124.8 604.252 123.2C608.652 121.467 612.718 118.8 616.452 115.2L633.052 133.2C622.918 144.8 608.118 150.6 588.652 150.6C576.518 150.6 565.785 148.267 556.452 143.6C547.118 138.8 539.918 132.2 534.852 123.8C529.785 115.4 527.252 105.867 527.252 95.2C527.252 84.6667 529.718 75.2 534.652 66.8C539.718 58.2667 546.585 51.6667 555.252 47C564.052 42.2 573.852 39.8 584.652 39.8C595.185 39.8 604.718 42.0667 613.252 46.6C621.785 51.1333 628.452 57.6667 633.252 66.2C638.185 74.6 640.652 84.4 640.652 95.6ZM584.852 63.4C577.785 63.4 571.852 65.4 567.052 69.4C562.252 73.4 559.318 78.8667 558.252 85.8H611.252C610.185 79 607.252 73.6 602.452 69.6C597.652 65.4667 591.785 63.4 584.852 63.4ZM723.623 150.6C714.69 150.6 705.957 149.533 697.423 147.4C688.89 145.133 682.09 142.333 677.023 139L687.423 116.6C692.223 119.667 698.023 122.2 704.823 124.2C711.623 126.067 718.29 127 724.823 127C738.023 127 744.623 123.733 744.623 117.2C744.623 114.133 742.823 111.933 739.223 110.6C735.623 109.267 730.09 108.133 722.623 107.2C713.823 105.867 706.557 104.333 700.823 102.6C695.09 100.867 690.09 97.8 685.823 93.4C681.69 89 679.623 82.7333 679.623 74.6C679.623 67.8 681.557 61.8 685.423 56.6C689.423 51.2667 695.157 47.1333 702.623 44.2C710.223 41.2667 719.157 39.8 729.423 39.8C737.023 39.8 744.557 40.6667 752.023 42.4C759.623 44 765.89 46.2667 770.823 49.2L760.423 71.4C750.957 66.0667 740.623 63.4 729.423 63.4C722.757 63.4 717.757 64.3333 714.423 66.2C711.09 68.0667 709.423 70.4667 709.423 73.4C709.423 76.7333 711.223 79.0667 714.823 80.4C718.423 81.7333 724.157 83 732.023 84.2C740.823 85.6667 748.023 87.2667 753.623 89C759.223 90.6 764.09 93.6 768.223 98C772.357 102.4 774.423 108.533 774.423 116.4C774.423 123.067 772.423 129 768.423 134.2C764.423 139.4 758.557 143.467 750.823 146.4C743.223 149.2 734.157 150.6 723.623 150.6ZM855.873 150.6C846.94 150.6 838.207 149.533 829.673 147.4C821.14 145.133 814.34 142.333 809.273 139L819.673 116.6C824.473 119.667 830.273 122.2 837.073 124.2C843.873 126.067 850.54 127 857.073 127C870.273 127 876.873 123.733 876.873 117.2C876.873 114.133 875.073 111.933 871.473 110.6C867.873 109.267 862.34 108.133 854.873 107.2C846.073 105.867 838.807 104.333 833.073 102.6C827.34 100.867 822.34 97.8 818.073 93.4C813.94 89 811.873 82.7333 811.873 74.6C811.873 67.8 813.807 61.8 817.673 56.6C821.673 51.2667 827.407 47.1333 834.873 44.2C842.473 41.2667 851.407 39.8 861.673 39.8C869.273 39.8 876.807 40.6667 884.273 42.4C891.873 44 898.14 46.2667 903.073 49.2L892.673 71.4C883.207 66.0667 872.873 63.4 861.673 63.4C855.007 63.4 850.007 64.3333 846.673 66.2C843.34 68.0667 841.673 70.4667 841.673 73.4C841.673 76.7333 843.473 79.0667 847.073 80.4C850.673 81.7333 856.407 83 864.273 84.2C873.073 85.6667 880.273 87.2667 885.873 89C891.473 90.6 896.34 93.6 900.473 98C904.607 102.4 906.673 108.533 906.673 116.4C906.673 123.067 904.673 129 900.673 134.2C896.673 139.4 890.807 143.467 883.073 146.4C875.473 149.2 866.407 150.6 855.873 150.6Z" fill="url(#paint0_linear_865_13)" fill-opacity="0.3"/>
</g>
<defs>
<linearGradient id="paint0_linear_865_13" x1="18.9595" y1="76.9997" x2="983.917" y2="76.9997" gradientUnits="userSpaceOnUse">
<stop offset="0.313009" stop-color="#FFC300"/>
<stop offset="0.576233" stop-color="#FFD7A9" stop-opacity="0"/>
<stop offset="0.973958" stop-color="white"/>
</linearGradient>
</defs>
</svg>
