<svg width="40" height="40" viewBox="0 0 40 40" fill="none" xmlns="http://www.w3.org/2000/svg">
<g clip-path="url(#clip0_633_994)">
<path d="M20 27.1932C24.8013 27.1932 27.2021 25.5955 27.2021 25.5955C27.2021 25.5955 25.6043 30.3968 20 30.3968C14.3956 30.3968 12.798 25.5955 12.798 25.5955C12.798 25.5955 15.1987 27.1932 20 27.1932ZM15.9933 14.3952H9.59431V15.9928H15.9933V14.3952ZM40 19.9995C40 31.0409 31.0414 39.9995 20 39.9995C8.95859 39.9995 0 31.0409 0 19.9995C0 8.95811 8.95859 -0.000488281 20 -0.000488281C31.033 -0.000488281 40 8.95811 40 19.9995ZM38.394 19.9995C38.394 9.76112 30.2384 1.60553 20 1.60553C9.76161 1.60553 1.60602 9.76112 1.60602 19.9995C1.60602 30.2379 9.76161 38.3935 20 38.3935C30.2384 38.3935 38.394 30.2379 38.394 19.9995ZM23.9983 15.9928H30.3973V14.3952H23.9983V15.9928Z" fill="#001A49"/>
</g>
<defs>
<clipPath id="clip0_633_994">
<rect width="40" height="40" fill="white" transform="translate(0 -0.000488281)"/>
</clipPath>
</defs>
</svg>
