<svg width="40" height="35" viewBox="0 0 40 35" fill="none" xmlns="http://www.w3.org/2000/svg">
<path d="M37.1651 2.76747C35.2751 0.921904 32.6638 -0.000488281 29.3301 -0.000488281C28.4075 -0.000488281 27.466 0.159472 26.5064 0.479237C25.5464 0.799237 24.6533 1.23096 23.8282 1.77409C23.002 2.31707 22.2919 2.82697 21.6962 3.30302C21.1013 3.77923 20.5356 4.2853 20 4.82085C19.4641 4.2853 18.8986 3.77923 18.3036 3.30302C17.7082 2.82697 16.9978 2.31738 16.1717 1.77409C15.3458 1.23072 14.4529 0.799315 13.4931 0.479237C12.5335 0.159551 11.5921 -0.000488281 10.6695 -0.000488281C7.33606 -0.000488281 4.72462 0.922139 2.83481 2.76747C0.944987 4.61265 0 7.17202 0 10.4458C0 11.4429 0.175128 12.47 0.52468 13.526C0.874232 14.5826 1.27257 15.483 1.71891 16.2269C2.16518 16.9707 2.67125 17.6961 3.23674 18.403C3.80223 19.1099 4.2155 19.597 4.47561 19.8649C4.73596 20.1327 4.94064 20.3264 5.08942 20.4455L19.0178 33.8831C19.2857 34.151 19.6131 34.2853 19.9999 34.2853C20.3868 34.2853 20.7143 34.151 20.9821 33.8831L34.8884 20.4897C38.2962 17.0825 39.9999 13.7343 39.9999 10.4455C40 7.17147 39.0551 4.61234 37.1651 2.76747ZM32.9463 18.3919L20 30.8694L7.03154 18.3693C4.24873 15.5872 2.85756 12.9455 2.85756 10.4455C2.85756 9.24033 3.01752 8.17619 3.33728 7.2538C3.65728 6.33125 4.06649 5.59813 4.56498 5.055C5.06354 4.51172 5.66984 4.06936 6.38412 3.72685C7.09878 3.38464 7.79812 3.15393 8.48252 3.03493C9.16693 2.9161 9.89598 2.8566 10.6699 2.8566C11.4436 2.8566 12.2771 3.04611 13.1699 3.42569C14.0626 3.80511 14.8848 4.28131 15.6362 4.85415C16.3878 5.42738 17.0313 5.96301 17.5673 6.46134C18.1029 6.96015 18.5492 7.41743 18.9064 7.83414C19.1741 8.16165 19.539 8.32536 20.0001 8.32536C20.4614 8.32536 20.8258 8.16165 21.0938 7.83414C21.451 7.41743 21.8976 6.95991 22.4332 6.46134C22.9689 5.96301 23.6126 5.42762 24.3638 4.85415C25.1154 4.28131 25.9375 3.80511 26.8307 3.42569C27.7232 3.04619 28.557 2.8566 29.3307 2.8566C30.1045 2.8566 30.8333 2.9161 31.518 3.03493C32.2027 3.15385 32.902 3.38464 33.6164 3.72685C34.3308 4.06928 34.9371 4.51195 35.4355 5.055C35.934 5.59813 36.3433 6.33125 36.6633 7.2538C36.9828 8.17619 37.1428 9.24033 37.1428 10.4455C37.1426 12.9455 35.7441 15.5946 32.9463 18.3919Z" fill="#001A49"/>
</svg>
