<svg width="448" height="267" viewBox="0 0 448 267" fill="none" xmlns="http://www.w3.org/2000/svg">
<g filter="url(#filter0_d_955_1489)">
<path d="M120.36 55.4H136.248C139.928 55.4 143.192 56.088 146.04 57.464C148.888 58.84 151.096 60.792 152.664 63.32C154.232 65.848 155.016 68.808 155.016 72.2C155.016 75.592 154.232 78.552 152.664 81.08C151.096 83.608 148.888 85.56 146.04 86.936C143.192 88.312 139.928 89 136.248 89H120.36V55.4ZM135.864 81.416C138.744 81.416 141.048 80.6 142.776 78.968C144.536 77.336 145.416 75.08 145.416 72.2C145.416 69.32 144.536 67.064 142.776 65.432C141.048 63.8 138.744 62.984 135.864 62.984H129.864V81.416H135.864ZM189.992 62.984L178.76 90.056C177.448 93.256 175.848 95.496 173.96 96.776C172.072 98.088 169.768 98.744 167.048 98.744C165.672 98.744 164.28 98.52 162.872 98.072C161.496 97.656 160.376 97.096 159.512 96.392L162.68 90.008C163.192 90.488 163.8 90.856 164.504 91.112C165.24 91.4 165.976 91.544 166.712 91.544C167.576 91.544 168.28 91.368 168.824 91.016C169.4 90.664 169.88 90.104 170.264 89.336L159.128 62.984H168.488L174.872 78.872L181.304 62.984H189.992ZM204.384 89.432C202.208 89.432 200.064 89.192 197.952 88.712C195.84 88.2 194.144 87.544 192.864 86.744L195.6 80.504C196.784 81.24 198.192 81.832 199.824 82.28C201.456 82.696 203.072 82.904 204.672 82.904C206.144 82.904 207.184 82.76 207.792 82.472C208.432 82.152 208.752 81.704 208.752 81.128C208.752 80.552 208.368 80.152 207.6 79.928C206.864 79.672 205.68 79.432 204.048 79.208C201.968 78.952 200.192 78.616 198.72 78.2C197.28 77.784 196.032 77.016 194.976 75.896C193.92 74.776 193.392 73.208 193.392 71.192C193.392 69.528 193.888 68.056 194.88 66.776C195.872 65.464 197.312 64.44 199.2 63.704C201.12 62.936 203.408 62.552 206.064 62.552C207.952 62.552 209.824 62.744 211.68 63.128C213.536 63.512 215.088 64.056 216.336 64.76L213.6 70.952C211.296 69.672 208.8 69.032 206.112 69.032C204.672 69.032 203.616 69.208 202.944 69.56C202.272 69.88 201.936 70.312 201.936 70.856C201.936 71.464 202.304 71.896 203.04 72.152C203.776 72.376 204.992 72.616 206.688 72.872C208.832 73.192 210.608 73.56 212.016 73.976C213.424 74.392 214.64 75.16 215.664 76.28C216.72 77.368 217.248 78.904 217.248 80.888C217.248 82.52 216.752 83.992 215.76 85.304C214.768 86.584 213.296 87.592 211.344 88.328C209.424 89.064 207.104 89.432 204.384 89.432Z" fill="#56CCF2"/>
<path d="M120.36 55.4V54.65H119.61V55.4H120.36ZM146.04 57.464L145.714 58.1393H145.714L146.04 57.464ZM152.664 81.08L153.301 81.4753L152.664 81.08ZM120.36 89H119.61V89.75H120.36V89ZM142.776 78.968L142.266 78.418L142.261 78.4227L142.776 78.968ZM142.776 65.432L142.261 65.9773L142.266 65.982L142.776 65.432ZM129.864 62.984V62.234H129.114V62.984H129.864ZM129.864 81.416H129.114V82.166H129.864V81.416ZM120.36 56.15H136.248V54.65H120.36V56.15ZM136.248 56.15C139.833 56.15 142.983 56.8199 145.714 58.1393L146.366 56.7887C143.401 55.3561 140.023 54.65 136.248 54.65V56.15ZM145.714 58.1393C148.442 59.4575 150.538 61.316 152.027 63.7153L153.301 62.9247C151.654 60.268 149.334 58.2225 146.366 56.7887L145.714 58.1393ZM152.027 63.7153C153.511 66.1087 154.266 68.9276 154.266 72.2H155.766C155.766 68.6884 154.953 65.5873 153.301 62.9247L152.027 63.7153ZM154.266 72.2C154.266 75.4724 153.511 78.2913 152.027 80.6847L153.301 81.4753C154.953 78.8127 155.766 75.7116 155.766 72.2H154.266ZM152.027 80.6847C150.538 83.084 148.442 84.9425 145.714 86.2607L146.366 87.6113C149.334 86.1775 151.654 84.132 153.301 81.4753L152.027 80.6847ZM145.714 86.2607C142.983 87.5801 139.833 88.25 136.248 88.25V89.75C140.023 89.75 143.401 89.0439 146.366 87.6113L145.714 86.2607ZM136.248 88.25H120.36V89.75H136.248V88.25ZM121.11 89V55.4H119.61V89H121.11ZM135.864 82.166C138.893 82.166 141.395 81.3035 143.291 79.5133L142.261 78.4227C140.701 79.8965 138.595 80.666 135.864 80.666V82.166ZM143.286 79.518C145.229 77.716 146.166 75.2435 146.166 72.2H144.666C144.666 74.9165 143.843 76.956 142.266 78.418L143.286 79.518ZM146.166 72.2C146.166 69.1565 145.229 66.684 143.286 64.882L142.266 65.982C143.843 67.444 144.666 69.4835 144.666 72.2H146.166ZM143.291 64.8867C141.395 63.0965 138.893 62.234 135.864 62.234V63.734C138.595 63.734 140.701 64.5035 142.261 65.9773L143.291 64.8867ZM135.864 62.234H129.864V63.734H135.864V62.234ZM129.114 62.984V81.416H130.614V62.984H129.114ZM129.864 82.166H135.864V80.666H129.864V82.166ZM189.992 62.984L190.685 63.2714L191.115 62.234H189.992V62.984ZM178.76 90.056L178.068 89.7686L178.066 89.7715L178.76 90.056ZM173.96 96.776L173.539 96.1552L173.532 96.1601L173.96 96.776ZM162.872 98.072L163.1 97.3572L163.089 97.3541L162.872 98.072ZM159.512 96.392L158.84 96.0586L158.574 96.5951L159.038 96.9734L159.512 96.392ZM162.68 90.008L163.193 89.4608L162.457 88.7707L162.008 89.6746L162.68 90.008ZM164.504 91.112L164.778 90.4136L164.769 90.4103L164.761 90.4072L164.504 91.112ZM168.824 91.016L168.433 90.376L168.425 90.3811L168.417 90.3863L168.824 91.016ZM170.264 89.336L170.935 89.6714L171.09 89.3623L170.955 89.0441L170.264 89.336ZM159.128 62.984V62.234H157.997L158.437 63.2759L159.128 62.984ZM168.488 62.984L169.184 62.7044L168.995 62.234H168.488V62.984ZM174.872 78.872L174.176 79.1516L174.87 80.8771L175.567 79.1534L174.872 78.872ZM181.304 62.984V62.234H180.799L180.609 62.7026L181.304 62.984ZM189.3 62.6966L178.068 89.7686L179.453 90.3434L190.685 63.2714L189.3 62.6966ZM178.066 89.7715C176.783 92.9008 175.257 94.9905 173.539 96.1552L174.381 97.3968C176.439 96.0015 178.113 93.6112 179.454 90.3405L178.066 89.7715ZM173.532 96.1601C171.792 97.3697 169.644 97.994 167.048 97.994V99.494C169.893 99.494 172.353 98.8063 174.388 97.3919L173.532 96.1601ZM167.048 97.994C165.755 97.994 164.44 97.7836 163.1 97.3573L162.645 98.7867C164.121 99.2564 165.59 99.494 167.048 99.494V97.994ZM163.089 97.3541C161.781 96.9586 160.756 96.4377 159.986 95.8106L159.038 96.9734C159.997 97.7543 161.211 98.3534 162.655 98.7899L163.089 97.3541ZM160.184 96.7254L163.352 90.3414L162.008 89.6746L158.84 96.0586L160.184 96.7254ZM162.167 90.5552C162.758 91.1091 163.455 91.5285 164.248 91.8168L164.761 90.4072C164.145 90.1835 163.626 89.8669 163.193 89.4608L162.167 90.5552ZM164.231 91.8104C165.048 92.13 165.876 92.294 166.712 92.294V90.794C166.076 90.794 165.433 90.67 164.778 90.4136L164.231 91.8104ZM166.712 92.294C167.674 92.294 168.532 92.0984 169.232 91.6457L168.417 90.3863C168.028 90.6376 167.479 90.794 166.712 90.794V92.294ZM169.215 91.656C169.94 91.2132 170.505 90.5313 170.935 89.6714L169.593 89.0006C169.255 89.6767 168.861 90.1148 168.433 90.376L169.215 91.656ZM170.955 89.0441L159.819 62.6921L158.437 63.2759L169.573 89.6279L170.955 89.0441ZM159.128 63.734H168.488V62.234H159.128V63.734ZM167.792 63.2636L174.176 79.1516L175.568 78.5924L169.184 62.7044L167.792 63.2636ZM175.567 79.1534L181.999 63.2654L180.609 62.7026L174.177 78.5906L175.567 79.1534ZM181.304 63.734H189.992V62.234H181.304V63.734ZM197.952 88.712L197.775 89.441L197.786 89.4433L197.952 88.712ZM192.864 86.744L192.177 86.4428L191.917 87.0365L192.466 87.38L192.864 86.744ZM195.6 80.504L195.996 79.867L195.261 79.41L194.913 80.2028L195.6 80.504ZM199.824 82.28L199.625 83.0034L199.639 83.0068L199.824 82.28ZM207.792 82.472L208.113 83.1498L208.12 83.1464L208.127 83.1428L207.792 82.472ZM207.6 79.928L207.354 80.6364L207.372 80.6427L207.39 80.648L207.6 79.928ZM204.048 79.208L204.15 78.4649L204.14 78.4636L204.048 79.208ZM198.72 78.2L198.512 78.9205L198.516 78.9217L198.72 78.2ZM194.976 75.896L194.43 76.4105L194.976 75.896ZM194.88 66.776L195.473 67.2355L195.478 67.2283L194.88 66.776ZM199.2 63.704L199.472 64.4028L199.479 64.4004L199.2 63.704ZM211.68 63.128L211.832 62.3936L211.68 63.128ZM216.336 64.76L217.022 65.0631L217.297 64.441L216.704 64.1068L216.336 64.76ZM213.6 70.952L213.236 71.6076L213.954 72.0066L214.286 71.2551L213.6 70.952ZM202.944 69.56L203.266 70.2371L203.279 70.231L203.292 70.2244L202.944 69.56ZM203.04 72.152L202.794 72.8604L202.808 72.8652L202.822 72.8695L203.04 72.152ZM206.688 72.872L206.576 73.6136L206.577 73.6138L206.688 72.872ZM212.016 73.976L212.229 73.2567L212.016 73.976ZM215.664 76.28L215.11 76.7861L215.118 76.7943L215.126 76.8024L215.664 76.28ZM215.76 85.304L216.353 85.7635L216.358 85.7563L215.76 85.304ZM211.344 88.328L211.079 87.6262L211.076 87.6277L211.344 88.328ZM204.384 88.682C202.264 88.682 200.175 88.4482 198.118 87.9807L197.786 89.4433C199.953 89.9358 202.152 90.182 204.384 90.182V88.682ZM198.129 87.9831C196.064 87.4825 194.451 86.8512 193.261 86.108L192.466 87.38C193.837 88.2368 195.616 88.9175 197.775 89.4409L198.129 87.9831ZM193.551 87.0452L196.287 80.8052L194.913 80.2028L192.177 86.4428L193.551 87.0452ZM195.204 81.141C196.461 81.9222 197.938 82.5401 199.625 83.0032L200.023 81.5568C198.446 81.1239 197.107 80.5578 195.996 79.867L195.204 81.141ZM199.639 83.0068C201.328 83.4374 203.006 83.654 204.672 83.654V82.154C203.138 82.154 201.584 81.9546 200.009 81.5532L199.639 83.0068ZM204.672 83.654C206.154 83.654 207.342 83.5152 208.113 83.1498L207.471 81.7942C207.026 82.0048 206.134 82.154 204.672 82.154V83.654ZM208.127 83.1428C208.948 82.7327 209.502 82.0622 209.502 81.128H208.002C208.002 81.3458 207.916 81.5713 207.457 81.8012L208.127 83.1428ZM209.502 81.128C209.502 80.6547 209.337 80.2222 209.005 79.8766C208.691 79.5491 208.268 79.3415 207.81 79.208L207.39 80.648C207.7 80.7385 207.853 80.8429 207.923 80.9154C207.975 80.9698 208.002 81.0253 208.002 81.128H209.502ZM207.846 79.2196C207.036 78.9377 205.789 78.69 204.15 78.465L203.946 79.951C205.571 80.174 206.692 80.4063 207.354 80.6364L207.846 79.2196ZM204.14 78.4636C202.085 78.2107 200.349 77.8809 198.924 77.4783L198.516 78.9217C200.035 79.3511 201.851 79.6933 203.956 79.9524L204.14 78.4636ZM198.928 77.4795C197.621 77.1017 196.488 76.4066 195.522 75.3815L194.43 76.4105C195.576 77.6254 196.939 78.4663 198.512 78.9205L198.928 77.4795ZM195.522 75.3815C194.634 74.4395 194.142 73.0778 194.142 71.192H192.642C192.642 73.3382 193.206 75.1125 194.43 76.4105L195.522 75.3815ZM194.142 71.192C194.142 69.6894 194.586 68.3801 195.473 67.2354L194.287 66.3166C193.19 67.7319 192.642 69.3666 192.642 71.192H194.142ZM195.478 67.2283C196.369 66.0502 197.684 65.1 199.472 64.4028L198.928 63.0052C196.94 63.78 195.375 64.8778 194.282 66.3237L195.478 67.2283ZM199.479 64.4004C201.289 63.6763 203.477 63.302 206.064 63.302V61.802C203.339 61.802 200.951 62.1957 198.921 63.0076L199.479 64.4004ZM206.064 63.302C207.901 63.302 209.722 63.4887 211.528 63.8624L211.832 62.3936C209.926 61.9993 208.003 61.802 206.064 61.802V63.302ZM211.528 63.8624C213.331 64.2355 214.805 64.7574 215.968 65.4132L216.704 64.1068C215.371 63.3546 213.741 62.7885 211.832 62.3936L211.528 63.8624ZM215.65 64.4569L212.914 70.6489L214.286 71.2551L217.022 65.0631L215.65 64.4569ZM213.964 70.2964C211.547 68.9532 208.925 68.282 206.112 68.282V69.782C208.675 69.782 211.045 70.3908 213.236 71.6076L213.964 70.2964ZM206.112 68.282C204.641 68.282 203.434 68.4567 202.596 68.8956L203.292 70.2244C203.798 69.9593 204.703 69.782 206.112 69.782V68.282ZM202.622 68.8829C201.801 69.2737 201.186 69.9161 201.186 70.856H202.686C202.686 70.7079 202.743 70.4863 203.266 70.2371L202.622 68.8829ZM201.186 70.856C201.186 71.3245 201.333 71.7605 201.641 72.1223C201.938 72.4709 202.345 72.7042 202.794 72.8604L203.286 71.4436C202.999 71.3438 202.854 71.2331 202.783 71.1496C202.723 71.0795 202.686 70.9955 202.686 70.856H201.186ZM202.822 72.8695C203.614 73.1107 204.877 73.3571 206.576 73.6136L206.8 72.1304C205.107 71.8749 203.938 71.6413 203.258 71.4345L202.822 72.8695ZM206.577 73.6138C208.701 73.9308 210.441 74.2926 211.803 74.6953L212.229 73.2567C210.775 72.8274 208.963 72.4532 206.799 72.1302L206.577 73.6138ZM211.803 74.6953C213.076 75.0712 214.175 75.7633 215.11 76.7861L216.218 75.7739C215.105 74.5567 213.772 73.7128 212.229 73.2567L211.803 74.6953ZM215.126 76.8024C216.008 77.7113 216.498 79.0367 216.498 80.888H217.998C217.998 78.7713 217.432 77.0247 216.202 75.7576L215.126 76.8024ZM216.498 80.888C216.498 82.3553 216.056 83.6688 215.162 84.8517L216.358 85.7563C217.448 84.3152 217.998 82.6847 217.998 80.888H216.498ZM215.167 84.8446C214.281 85.9876 212.938 86.9253 211.079 87.6262L211.609 89.0298C213.654 88.2587 215.255 87.1804 216.353 85.7634L215.167 84.8446ZM211.076 87.6277C209.264 88.3221 207.04 88.682 204.384 88.682V90.182C207.168 90.182 209.584 89.8059 211.612 89.0283L211.076 87.6277ZM224.178 53.384V52.634H223.428V53.384H224.178ZM233.298 53.384H234.048V52.634H233.298V53.384ZM233.298 89V89.75H234.048V89H233.298ZM224.178 89H223.428V89.75H224.178V89ZM224.178 54.134H233.298V52.634H224.178V54.134ZM232.548 53.384V89H234.048V53.384H232.548ZM233.298 88.25H224.178V89.75H233.298V88.25ZM224.928 89V53.384H223.428V89H224.928ZM268.673 78.296V79.046H269.375L269.421 78.3459L268.673 78.296ZM249.761 78.296V77.546H248.767L249.04 78.502L249.761 78.296ZM251.969 81.416L251.549 82.0372L251.559 82.0443L251.57 82.051L251.969 81.416ZM259.361 81.944L259.095 81.2427L259.087 81.2459L259.361 81.944ZM262.145 80.216L262.686 79.6962L262.193 79.1841L261.655 79.6479L262.145 80.216ZM266.945 85.208L267.503 85.709L267.968 85.1905L267.486 84.6882L266.945 85.208ZM247.841 87.704L248.176 87.0332L247.841 87.704ZM242.465 82.904L241.824 83.2943L241.829 83.3015L242.465 82.904ZM242.417 69.08L241.776 68.6897L241.775 68.6926L242.417 69.08ZM247.553 64.28L247.202 63.6172L247.553 64.28ZM261.953 64.184L261.609 64.8508L261.617 64.8548L261.953 64.184ZM266.945 68.84L266.3 69.223L266.307 69.2348L266.945 68.84ZM251.393 70.232L250.913 69.6558L250.903 69.6639L251.393 70.232ZM249.617 73.496L248.88 73.3588L248.714 74.246H249.617V73.496ZM260.273 73.496V74.246H261.175L261.01 73.3588L260.273 73.496ZM258.449 70.232L257.959 70.8001L257.969 70.8082L258.449 70.232ZM268.067 76.04C268.067 76.0277 268.066 76.0564 268.059 76.173C268.053 76.2731 268.044 76.4166 268.032 76.6042C268.008 76.9791 267.973 77.5263 267.925 78.2461L269.421 78.3459C269.515 76.9336 269.567 76.1372 269.567 76.04H268.067ZM268.673 77.546H249.761V79.046H268.673V77.546ZM249.04 78.502C249.469 80.0037 250.305 81.1958 251.549 82.0372L252.389 80.7948C251.457 80.1642 250.821 79.2763 250.482 78.09L249.04 78.502ZM251.57 82.051C252.837 82.8473 254.376 83.222 256.145 83.222V81.722C254.586 81.722 253.341 81.3927 252.368 80.781L251.57 82.051ZM256.145 83.222C257.46 83.222 258.63 83.0369 259.635 82.6421L259.087 81.2459C258.3 81.5551 257.326 81.722 256.145 81.722V83.222ZM259.627 82.6452C260.653 82.2559 261.655 81.6283 262.635 80.7841L261.655 79.6479C260.778 80.4037 259.924 80.9281 259.095 81.2428L259.627 82.6452ZM261.604 80.7358L266.404 85.7278L267.486 84.6882L262.686 79.6962L261.604 80.7358ZM266.387 84.707C264.039 87.322 260.573 88.682 255.857 88.682V90.182C260.869 90.182 264.795 88.726 267.503 85.709L266.387 84.707ZM255.857 88.682C252.912 88.682 250.359 88.1245 248.176 87.0332L247.505 88.3748C249.931 89.5875 252.721 90.182 255.857 90.182V88.682ZM248.176 87.0332C245.987 85.9386 244.303 84.4296 243.101 82.5065L241.829 83.3015C243.187 85.4744 245.087 87.1654 247.505 88.3748L248.176 87.0332ZM243.105 82.5137C241.935 80.5928 241.343 78.4099 241.343 75.944H239.843C239.843 78.6621 240.499 81.1192 241.824 83.2943L243.105 82.5137ZM241.343 75.944C241.343 73.5082 241.92 71.3563 243.059 69.4674L241.775 68.6926C240.482 70.8357 239.843 73.2598 239.843 75.944H241.343ZM243.057 69.4703C244.233 67.5407 245.844 66.0335 247.904 64.9428L247.202 63.6172C244.91 64.8305 243.097 66.5233 241.776 68.6897L243.057 69.4703ZM247.904 64.9428C249.961 63.8539 252.286 63.302 254.897 63.302V61.802C252.068 61.802 249.497 62.4021 247.202 63.6172L247.904 64.9428ZM254.897 63.302C257.38 63.302 259.613 63.8223 261.609 64.8507L262.296 63.5173C260.069 62.3697 257.597 61.802 254.897 61.802V63.302ZM261.617 64.8548C263.6 65.8459 265.157 67.2974 266.3 69.2229L267.59 68.4571C266.301 66.2866 264.53 64.6341 262.288 63.5132L261.617 64.8548ZM266.307 69.2348C267.47 71.1128 268.067 73.3708 268.067 76.04H269.567C269.567 73.1412 268.916 70.5992 267.583 68.4452L266.307 69.2348ZM254.945 68.282C253.385 68.282 252.025 68.7293 250.913 69.6558L251.873 70.8082C252.681 70.1347 253.689 69.782 254.945 69.782V68.282ZM250.903 69.6639C249.828 70.5909 249.162 71.8403 248.88 73.3588L250.354 73.6332C250.584 72.3997 251.102 71.4731 251.883 70.8001L250.903 69.6639ZM249.617 74.246H260.273V72.746H249.617V74.246ZM261.01 73.3588C260.726 71.8329 260.039 70.5812 258.929 69.6558L257.969 70.8082C258.778 71.4828 259.307 72.4071 259.536 73.6332L261.01 73.3588ZM258.939 69.6639C257.854 68.7292 256.504 68.282 254.945 68.282V69.782C256.202 69.782 257.187 70.1348 257.959 70.8001L258.939 69.6639ZM279.046 88.712L278.869 89.441L278.88 89.4433L279.046 88.712ZM273.958 86.744L273.271 86.4428L273.011 87.0365L273.56 87.38L273.958 86.744ZM276.694 80.504L277.09 79.867L276.354 79.41L276.007 80.2028L276.694 80.504ZM280.918 82.28L280.719 83.0034L280.732 83.0068L280.918 82.28ZM288.886 82.472L289.207 83.1498L289.214 83.1464L289.221 83.1428L288.886 82.472ZM288.694 79.928L288.447 80.6364L288.465 80.6427L288.484 80.648L288.694 79.928ZM285.142 79.208L285.244 78.4649L285.233 78.4636L285.142 79.208ZM279.814 78.2L279.606 78.9205L279.61 78.9217L279.814 78.2ZM276.07 75.896L275.524 76.4105L276.07 75.896ZM275.974 66.776L276.567 67.2355L276.572 67.2283L275.974 66.776ZM280.294 63.704L280.566 64.4028L280.572 64.4004L280.294 63.704ZM292.774 63.128L292.926 62.3936L292.774 63.128ZM297.43 64.76L298.116 65.0631L298.391 64.441L297.798 64.1068L297.43 64.76ZM294.694 70.952L294.33 71.6076L295.048 72.0066L295.38 71.2551L294.694 70.952ZM284.038 69.56L284.36 70.2371L284.373 70.231L284.386 70.2244L284.038 69.56ZM284.134 72.152L283.887 72.8604L283.901 72.8652L283.915 72.8695L284.134 72.152ZM287.782 72.872L287.67 73.6136L287.671 73.6138L287.782 72.872ZM293.11 73.976L293.322 73.2567L293.11 73.976ZM296.758 76.28L296.204 76.7861L296.212 76.7943L296.22 76.8024L296.758 76.28ZM296.854 85.304L297.447 85.7635L297.452 85.7563L296.854 85.304ZM292.438 88.328L292.173 87.6262L292.169 87.6277L292.438 88.328ZM285.478 88.682C283.357 88.682 281.269 88.4482 279.212 87.9807L278.88 89.4433C281.046 89.9358 283.246 90.182 285.478 90.182V88.682ZM279.222 87.9831C277.157 87.4825 275.544 86.8512 274.355 86.108L273.56 87.38C274.931 88.2368 276.71 88.9175 278.869 89.4409L279.222 87.9831ZM274.645 87.0452L277.381 80.8052L276.007 80.2028L273.271 86.4428L274.645 87.0452ZM276.298 81.141C277.555 81.9222 279.032 82.5401 280.719 83.0032L281.116 81.5568C279.54 81.1239 278.201 80.5578 277.09 79.867L276.298 81.141ZM280.732 83.0068C282.422 83.4374 284.1 83.654 285.766 83.654V82.154C284.231 82.154 282.678 81.9546 281.103 81.5532L280.732 83.0068ZM285.766 83.654C287.247 83.654 288.436 83.5152 289.207 83.1498L288.565 81.7942C288.12 82.0048 287.228 82.154 285.766 82.154V83.654ZM289.221 83.1428C290.041 82.7327 290.596 82.0622 290.596 81.128H289.096C289.096 81.3458 289.01 81.5713 288.55 81.8012L289.221 83.1428ZM290.596 81.128C290.596 80.6547 290.431 80.2222 290.099 79.8766C289.784 79.5491 289.361 79.3415 288.904 79.208L288.484 80.648C288.794 80.7385 288.947 80.8429 289.017 80.9154C289.069 80.9698 289.096 81.0253 289.096 81.128H290.596ZM288.94 79.2196C288.13 78.9377 286.883 78.69 285.244 78.465L285.04 79.951C286.664 80.174 287.786 80.4063 288.447 80.6364L288.94 79.2196ZM285.233 78.4636C283.178 78.2107 281.442 77.8809 280.018 77.4783L279.61 78.9217C281.129 79.3511 282.945 79.6933 285.05 79.9524L285.233 78.4636ZM280.022 77.4795C278.714 77.1017 277.582 76.4066 276.615 75.3815L275.524 76.4105C276.67 77.6254 278.033 78.4663 279.606 78.9205L280.022 77.4795ZM276.615 75.3815C275.727 74.4395 275.236 73.0778 275.236 71.192H273.736C273.736 73.3382 274.3 75.1125 275.524 76.4105L276.615 75.3815ZM275.236 71.192C275.236 69.6894 275.679 68.3801 276.567 67.2354L275.381 66.3166C274.284 67.7319 273.736 69.3666 273.736 71.192H275.236ZM276.572 67.2283C277.463 66.0502 278.778 65.1 280.566 64.4028L280.021 63.0052C278.034 63.78 276.469 64.8778 275.376 66.3237L276.572 67.2283ZM280.572 64.4004C282.382 63.6763 284.571 63.302 287.158 63.302V61.802C284.432 61.802 282.045 62.1957 280.015 63.0076L280.572 64.4004ZM287.158 63.302C288.995 63.302 290.816 63.4887 292.622 63.8624L292.926 62.3936C291.02 61.9993 289.097 61.802 287.158 61.802V63.302ZM292.622 63.8624C294.425 64.2355 295.899 64.7574 297.061 65.4132L297.798 64.1068C296.465 63.3546 294.835 62.7885 292.926 62.3936L292.622 63.8624ZM296.744 64.4569L294.008 70.6489L295.38 71.2551L298.116 65.0631L296.744 64.4569ZM295.058 70.2964C292.64 68.9532 290.019 68.282 287.206 68.282V69.782C289.769 69.782 292.139 70.3908 294.33 71.6076L295.058 70.2964ZM287.206 68.282C285.735 68.282 284.528 68.4567 283.69 68.8956L284.386 70.2244C284.892 69.9593 285.797 69.782 287.206 69.782V68.282ZM283.715 68.8829C282.895 69.2737 282.28 69.9161 282.28 70.856H283.78C283.78 70.7079 283.837 70.4863 284.36 70.2371L283.715 68.8829ZM282.28 70.856C282.28 71.3245 282.427 71.7605 282.735 72.1223C283.032 72.4709 283.438 72.7042 283.887 72.8604L284.38 71.4436C284.093 71.3438 283.948 71.2331 283.877 71.1496C283.817 71.0795 283.78 70.9955 283.78 70.856H282.28ZM283.915 72.8695C284.708 73.1107 285.971 73.3571 287.67 73.6136L287.894 72.1304C286.201 71.8749 285.032 71.6413 284.352 71.4345L283.915 72.8695ZM287.671 73.6138C289.795 73.9308 291.534 74.2926 292.897 74.6953L293.322 73.2567C291.869 72.8274 290.056 72.4532 287.892 72.1302L287.671 73.6138ZM292.897 74.6953C294.17 75.0712 295.269 75.7633 296.204 76.7861L297.311 75.7739C296.198 74.5567 294.866 73.7128 293.322 73.2567L292.897 74.6953ZM296.22 76.8024C297.102 77.7113 297.592 79.0367 297.592 80.888H299.092C299.092 78.7713 298.526 77.0247 297.296 75.7576L296.22 76.8024ZM297.592 80.888C297.592 82.3553 297.15 83.6688 296.256 84.8517L297.452 85.7563C298.542 84.3152 299.092 82.6847 299.092 80.888H297.592ZM296.261 84.8446C295.375 85.9876 294.032 86.9253 292.173 87.6262L292.702 89.0298C294.747 88.2587 296.348 87.1804 297.447 85.7634L296.261 84.8446ZM292.169 87.6277C290.358 88.3221 288.134 88.682 285.478 88.682V90.182C288.262 90.182 290.678 89.8059 292.706 89.0283L292.169 87.6277ZM308.296 88.712L308.119 89.441L308.13 89.4433L308.296 88.712ZM303.208 86.744L302.521 86.4428L302.261 87.0365L302.81 87.38L303.208 86.744ZM305.944 80.504L306.34 79.867L305.604 79.41L305.257 80.2028L305.944 80.504ZM310.168 82.28L309.969 83.0034L309.982 83.0068L310.168 82.28ZM318.136 82.472L318.457 83.1498L318.464 83.1464L318.471 83.1428L318.136 82.472ZM317.944 79.928L317.697 80.6364L317.715 80.6427L317.734 80.648L317.944 79.928ZM314.392 79.208L314.494 78.4649L314.483 78.4636L314.392 79.208ZM309.064 78.2L308.856 78.9205L308.86 78.9217L309.064 78.2ZM305.32 75.896L304.774 76.4105L305.32 75.896ZM305.224 66.776L305.817 67.2355L305.822 67.2283L305.224 66.776ZM309.544 63.704L309.816 64.4028L309.822 64.4004L309.544 63.704ZM322.024 63.128L322.176 62.3936L322.024 63.128ZM326.68 64.76L327.366 65.0631L327.641 64.441L327.048 64.1068L326.68 64.76ZM323.944 70.952L323.58 71.6076L324.298 72.0066L324.63 71.2551L323.944 70.952ZM313.288 69.56L313.61 70.2371L313.623 70.231L313.636 70.2244L313.288 69.56ZM313.384 72.152L313.137 72.8604L313.151 72.8652L313.165 72.8695L313.384 72.152ZM317.032 72.872L316.92 73.6136L316.921 73.6138L317.032 72.872ZM322.36 73.976L322.572 73.2567L322.36 73.976ZM326.008 76.28L325.454 76.7861L325.462 76.7943L325.47 76.8024L326.008 76.28ZM326.104 85.304L326.697 85.7635L326.702 85.7563L326.104 85.304ZM321.688 88.328L321.423 87.6262L321.419 87.6277L321.688 88.328ZM314.728 88.682C312.607 88.682 310.519 88.4482 308.462 87.9807L308.13 89.4433C310.296 89.9358 312.496 90.182 314.728 90.182V88.682ZM308.472 87.9831C306.407 87.4825 304.794 86.8512 303.605 86.108L302.81 87.38C304.181 88.2368 305.96 88.9175 308.119 89.4409L308.472 87.9831ZM303.895 87.0452L306.631 80.8052L305.257 80.2028L302.521 86.4428L303.895 87.0452ZM305.548 81.141C306.805 81.9222 308.282 82.5401 309.969 83.0032L310.366 81.5568C308.79 81.1239 307.451 80.5578 306.34 79.867L305.548 81.141ZM309.982 83.0068C311.672 83.4374 313.35 83.654 315.016 83.654V82.154C313.481 82.154 311.928 81.9546 310.353 81.5532L309.982 83.0068ZM315.016 83.654C316.497 83.654 317.686 83.5152 318.457 83.1498L317.815 81.7942C317.37 82.0048 316.478 82.154 315.016 82.154V83.654ZM318.471 83.1428C319.291 82.7327 319.846 82.0622 319.846 81.128H318.346C318.346 81.3458 318.26 81.5713 317.8 81.8012L318.471 83.1428ZM319.846 81.128C319.846 80.6547 319.681 80.2222 319.349 79.8766C319.034 79.5491 318.611 79.3415 318.154 79.208L317.734 80.648C318.044 80.7385 318.197 80.8429 318.267 80.9154C318.319 80.9698 318.346 81.0253 318.346 81.128H319.846ZM318.19 79.2196C317.38 78.9377 316.133 78.69 314.494 78.465L314.29 79.951C315.914 80.174 317.036 80.4063 317.697 80.6364L318.19 79.2196ZM314.483 78.4636C312.428 78.2107 310.692 77.8809 309.268 77.4783L308.86 78.9217C310.379 79.3511 312.195 79.6933 314.3 79.9524L314.483 78.4636ZM309.272 77.4795C307.964 77.1017 306.832 76.4066 305.865 75.3815L304.774 76.4105C305.92 77.6254 307.283 78.4663 308.856 78.9205L309.272 77.4795ZM305.865 75.3815C304.977 74.4395 304.486 73.0778 304.486 71.192H302.986C302.986 73.3382 303.55 75.1125 304.774 76.4105L305.865 75.3815ZM304.486 71.192C304.486 69.6894 304.929 68.3801 305.817 67.2354L304.631 66.3166C303.534 67.7319 302.986 69.3666 302.986 71.192H304.486ZM305.822 67.2283C306.713 66.0502 308.028 65.1 309.816 64.4028L309.271 63.0052C307.284 63.78 305.719 64.8778 304.626 66.3237L305.822 67.2283ZM309.822 64.4004C311.632 63.6763 313.821 63.302 316.408 63.302V61.802C313.682 61.802 311.295 62.1957 309.265 63.0076L309.822 64.4004ZM316.408 63.302C318.245 63.302 320.066 63.4887 321.872 63.8624L322.176 62.3936C320.27 61.9993 318.347 61.802 316.408 61.802V63.302ZM321.872 63.8624C323.675 64.2355 325.149 64.7574 326.311 65.4132L327.048 64.1068C325.715 63.3546 324.085 62.7885 322.176 62.3936L321.872 63.8624ZM325.994 64.4569L323.258 70.6489L324.63 71.2551L327.366 65.0631L325.994 64.4569ZM324.308 70.2964C321.89 68.9532 319.269 68.282 316.456 68.282V69.782C319.019 69.782 321.389 70.3908 323.58 71.6076L324.308 70.2964ZM316.456 68.282C314.985 68.282 313.778 68.4567 312.94 68.8956L313.636 70.2244C314.142 69.9593 315.047 69.782 316.456 69.782V68.282ZM312.965 68.8829C312.145 69.2737 311.53 69.9161 311.53 70.856H313.03C313.03 70.7079 313.087 70.4863 313.61 70.2371L312.965 68.8829ZM311.53 70.856C311.53 71.3245 311.677 71.7605 311.985 72.1223C312.282 72.4709 312.688 72.7042 313.137 72.8604L313.63 71.4436C313.343 71.3438 313.198 71.2331 313.127 71.1496C313.067 71.0795 313.03 70.9955 313.03 70.856H311.53ZM313.165 72.8695C313.958 73.1107 315.221 73.3571 316.92 73.6136L317.144 72.1304C315.451 71.8749 314.282 71.6413 313.602 71.4345L313.165 72.8695ZM316.921 73.6138C319.045 73.9308 320.784 74.2926 322.147 74.6953L322.572 73.2567C321.119 72.8274 319.306 72.4532 317.142 72.1302L316.921 73.6138ZM322.147 74.6953C323.42 75.0712 324.519 75.7633 325.454 76.7861L326.561 75.7739C325.448 74.5567 324.116 73.7128 322.572 73.2567L322.147 74.6953ZM325.47 76.8024C326.352 77.7113 326.842 79.0367 326.842 80.888H328.342C328.342 78.7713 327.776 77.0247 326.546 75.7576L325.47 76.8024ZM326.842 80.888C326.842 82.3553 326.4 83.6688 325.506 84.8517L326.702 85.7563C327.792 84.3152 328.342 82.6847 328.342 80.888H326.842ZM325.511 84.8446C324.625 85.9876 323.282 86.9253 321.423 87.6262L321.952 89.0298C323.997 88.2587 325.598 87.1804 326.697 85.7634L325.511 84.8446ZM321.419 87.6277C319.608 88.3221 317.384 88.682 314.728 88.682V90.182C317.512 90.182 319.928 89.8059 321.956 89.0283L321.419 87.6277Z" fill="#56CCF2"/>
</g>
<defs>
<filter id="filter0_d_955_1489" x="0.359375" y="-18.6162" width="447.232" height="285.36" filterUnits="userSpaceOnUse" color-interpolation-filters="sRGB">
<feFlood flood-opacity="0" result="BackgroundImageFix"/>
<feColorMatrix in="SourceAlpha" type="matrix" values="0 0 0 0 0 0 0 0 0 0 0 0 0 0 0 0 0 0 127 0" result="hardAlpha"/>
<feOffset dy="48"/>
<feGaussianBlur stdDeviation="60"/>
<feComposite in2="hardAlpha" operator="out"/>
<feColorMatrix type="matrix" values="0 0 0 0 0 0 0 0 0 0.101961 0 0 0 0 0.286275 0 0 0 0.1 0"/>
<feBlend mode="normal" in2="BackgroundImageFix" result="effect1_dropShadow_955_1489"/>
<feBlend mode="normal" in="SourceGraphic" in2="effect1_dropShadow_955_1489" result="shape"/>
</filter>
</defs>
</svg>
