<svg width="40" height="40" viewBox="0 0 40 40" fill="none" xmlns="http://www.w3.org/2000/svg">
<path d="M20 40C31.0375 40 40 31.0375 40 20C40 8.96247 31.0375 0 20 0C8.96247 0 0 8.96247 0 20C0 31.0375 8.96247 40 20 40Z" fill="white"/>
<path d="M11.444 10.8H19.4C21.3413 10.8 23.066 11.1813 24.574 11.944C26.082 12.6893 27.252 13.7553 28.084 15.142C28.916 16.5113 29.332 18.0973 29.332 19.9C29.332 21.7027 28.916 23.2973 28.084 24.684C27.252 26.0533 26.082 27.1193 24.574 27.882C23.066 28.6273 21.3413 29 19.4 29H11.444V10.8ZM19.244 26.14C20.5787 26.14 21.7487 25.8887 22.754 25.386C23.7767 24.866 24.5567 24.138 25.094 23.202C25.6487 22.2487 25.926 21.148 25.926 19.9C25.926 18.652 25.6487 17.56 25.094 16.624C24.5567 15.6707 23.7767 14.9427 22.754 14.44C21.7487 13.92 20.5787 13.66 19.244 13.66H14.824V26.14H19.244Z" fill="#56CCF2"/>
</svg>
