<svg width="17" height="17" viewBox="0 0 17 17" fill="none" xmlns="http://www.w3.org/2000/svg">
<path d="M13.3738 6.86665L16.0262 4.21421C16.2724 3.968 16.2626 3.55905 16.0044 3.30079L14.1574 1.45385C11.8194 -0.884187 7.35416 2.64584 4.6871 5.3129C2.03601 7.96399 -1.53239 12.4676 0.805646 14.8056L2.65259 16.6526C2.91085 16.9108 3.3198 16.9206 3.56601 16.6744L6.21845 14.022C6.46466 13.7757 6.4549 13.3668 6.19664 13.1085L4.34972 11.2616C4.34972 11.2616 4.35144 10.3717 7.01395 7.66216C9.67647 4.9526 10.6134 4.99792 10.6134 4.99792L12.4603 6.84485C12.7186 7.1031 13.1275 7.11286 13.3738 6.86665Z" fill="#001A49"/>
</svg>
