<svg width="18" height="19" viewBox="0 0 18 19" fill="none" xmlns="http://www.w3.org/2000/svg">
<path d="M14.3738 7.86665L17.0262 5.21421C17.2724 4.968 17.2626 4.55905 17.0044 4.30079L15.1574 2.45385C12.8194 0.115813 8.35416 3.64584 5.6871 6.3129C3.03601 8.96399 -0.532389 13.4676 1.80565 15.8056L3.65259 17.6526C3.91085 17.9108 4.3198 17.9206 4.56601 17.6744L7.21845 15.022C7.46466 14.7757 7.4549 14.3668 7.19664 14.1085L5.34972 12.2616C5.34972 12.2616 5.35144 11.3717 8.01395 8.66216C10.6765 5.9526 11.6134 5.99792 11.6134 5.99792L13.4603 7.84485C13.7186 8.1031 14.1275 8.11286 14.3738 7.86665Z" stroke="#001A49" stroke-width="1.5" stroke-linecap="round" stroke-linejoin="round"/>
</svg>
