<svg width="96" height="75" viewBox="0 0 96 75" fill="none" xmlns="http://www.w3.org/2000/svg">
<path d="M45 11C35 18.8333 29.3333 28.0833 28 38.75L42 50.75C41.1667 55.5833 38.8333 60.3333 35 65C31.1667 69.5 26.6667 72.5833 21.5 74.25C7.5 68.5833 0.5 59.3333 0.5 46.5C0.5 37.8333 3.75 29.25 10.25 20.75C16.75 12.25 25.4167 5.33332 36.25 -1.04904e-05L45 11ZM95.25 11C85.25 18.8333 79.5833 28.0833 78.25 38.75L92.25 50.75C91.4167 55.5833 89.0833 60.3333 85.25 65C81.4167 69.5 76.9167 72.5833 71.75 74.25C57.75 68.5833 50.75 59.3333 50.75 46.5C50.75 37.8333 54 29.25 60.5 20.75C67 12.25 75.6667 5.33332 86.5 -1.04904e-05L95.25 11Z" fill="#FFC300"/>
<path d="M45 11L45.3083 11.3936L45.7049 11.083L45.3913 10.6887L45 11ZM28 38.75L27.5039 38.688L27.4705 38.9547L27.6746 39.1296L28 38.75ZM42 50.75L42.4927 50.8349L42.541 50.5551L42.3254 50.3704L42 50.75ZM35 65L35.3807 65.3243L35.3864 65.3174L35 65ZM21.5 74.25L21.3124 74.7135L21.4807 74.7816L21.6535 74.7258L21.5 74.25ZM10.25 20.75L10.6472 21.0537L10.25 20.75ZM36.25 -7.62939e-06L36.6413 -0.311272L36.3905 -0.626511L36.0292 -0.448593L36.25 -7.62939e-06ZM95.25 11L95.5583 11.3936L95.9549 11.083L95.6413 10.6887L95.25 11ZM78.25 38.75L77.7539 38.688L77.7205 38.9547L77.9246 39.1296L78.25 38.75ZM92.25 50.75L92.7427 50.8349L92.791 50.5551L92.5754 50.3704L92.25 50.75ZM85.25 65L85.6307 65.3243L85.6364 65.3174L85.25 65ZM71.75 74.25L71.5624 74.7135L71.7307 74.7816L71.9035 74.7258L71.75 74.25ZM60.5 20.75L60.1028 20.4463L60.5 20.75ZM86.5 -7.62939e-06L86.8913 -0.311272L86.6405 -0.626511L86.2792 -0.448593L86.5 -7.62939e-06ZM44.6917 10.6064C34.608 18.5052 28.8565 27.8668 27.5039 38.688L28.4961 38.812C29.8102 28.2999 35.392 19.1614 45.3083 11.3936L44.6917 10.6064ZM27.6746 39.1296L41.6746 51.1296L42.3254 50.3704L28.3254 38.3704L27.6746 39.1296ZM41.5073 50.665C40.6917 55.3953 38.4046 60.0676 34.6136 64.6826L35.3864 65.3174C39.2621 60.5991 41.6416 55.7713 42.4927 50.8349L41.5073 50.665ZM34.6194 64.6758C30.8407 69.1116 26.4171 72.1385 21.3465 73.7741L21.6535 74.7258C26.9163 73.0282 31.4927 69.8884 35.3806 65.3242L34.6194 64.6758ZM21.6876 73.7865C14.7466 70.9771 9.58012 67.2952 6.1487 62.7608C2.72144 58.2319 1 52.8199 1 46.5H0C0 53.0134 1.77856 58.6431 5.3513 63.3642C8.91988 68.0798 14.2534 71.8563 21.3124 74.7135L21.6876 73.7865ZM1 46.5C1 37.9668 4.19788 29.4874 10.6472 21.0537L9.85282 20.4463C3.30212 29.0126 0 37.6998 0 46.5H1ZM10.6472 21.0537C17.0946 12.6224 25.6977 5.75227 36.4708 0.448578L36.0292 -0.448593C25.1356 4.91438 16.4054 11.8776 9.85282 20.4463L10.6472 21.0537ZM35.8587 0.311249L44.6087 11.3113L45.3913 10.6887L36.6413 -0.311272L35.8587 0.311249ZM94.9417 10.6064C84.858 18.5052 79.1065 27.8668 77.7539 38.688L78.7461 38.812C80.0602 28.2999 85.642 19.1614 95.5583 11.3936L94.9417 10.6064ZM77.9246 39.1296L91.9246 51.1296L92.5754 50.3704L78.5754 38.3704L77.9246 39.1296ZM91.7573 50.665C90.9417 55.3953 88.6546 60.0676 84.8636 64.6826L85.6364 65.3174C89.5121 60.5991 91.8916 55.7713 92.7427 50.8349L91.7573 50.665ZM84.8694 64.6758C81.0907 69.1116 76.6671 72.1385 71.5965 73.7741L71.9035 74.7258C77.1663 73.0282 81.7427 69.8884 85.6306 65.3242L84.8694 64.6758ZM71.9376 73.7865C64.9966 70.9771 59.8301 67.2952 56.3987 62.7608C52.9714 58.2319 51.25 52.8199 51.25 46.5H50.25C50.25 53.0134 52.0286 58.6431 55.6013 63.3642C59.1699 68.0798 64.5034 71.8563 71.5624 74.7135L71.9376 73.7865ZM51.25 46.5C51.25 37.9668 54.4479 29.4874 60.8972 21.0537L60.1028 20.4463C53.5521 29.0126 50.25 37.6998 50.25 46.5H51.25ZM60.8972 21.0537C67.3447 12.6224 75.9477 5.75227 86.7208 0.448578L86.2792 -0.448593C75.3856 4.91438 66.6554 11.8776 60.1028 20.4463L60.8972 21.0537ZM86.1087 0.311249L94.8587 11.3113L95.6413 10.6887L86.8913 -0.311272L86.1087 0.311249Z" fill="#FFC300"/>
</svg>
