<svg width="40" height="40" viewBox="0 0 40 40" fill="none" xmlns="http://www.w3.org/2000/svg">
<path d="M13.605 20.877L13.6017 20.8803C13.505 20.977 13.4467 21.0937 13.4067 21.2153C13.4034 21.2287 13.39 21.2353 13.3867 21.2487L11.735 27.2403C11.655 27.5287 11.7367 27.8387 11.9484 28.0503C12.1067 28.2087 12.32 28.2937 12.5384 28.2937C12.6117 28.2937 12.6867 28.2837 12.76 28.2637L18.7517 26.612C18.765 26.6087 18.7717 26.597 18.785 26.592C18.9067 26.552 19.0234 26.4937 19.12 26.397L19.1234 26.3937L39.4067 6.11034C40.1967 5.32034 40.1967 4.03701 39.4067 3.24701L36.7517 0.592012C35.9617 -0.197988 34.6784 -0.197988 33.8884 0.592012L13.605 20.877ZM35.0684 1.77201C35.2084 1.63201 35.435 1.63201 35.575 1.77201L38.23 4.42701C38.3684 4.56701 38.3684 4.79368 38.23 4.93368L37.4917 5.67201L34.3317 2.51201L35.0684 1.77201ZM33.1517 3.68868L36.3117 6.84868L18.53 24.6303L15.37 21.4703L33.1517 3.68868ZM14.615 23.072L16.93 25.387L13.7334 26.267L14.615 23.072Z" fill="#001A49"/>
<path d="M3.03 40.0002H31.97C33.6417 40.0002 35 38.6419 35 36.9702V17.3569C35 16.8969 34.6267 16.5236 34.1667 16.5236C33.7067 16.5236 33.3333 16.8969 33.3333 17.3569V36.9702C33.3333 37.7219 32.7217 38.3336 31.97 38.3336H3.03C2.27833 38.3336 1.66667 37.7219 1.66667 36.9702V8.03024C1.66667 7.27858 2.27833 6.66691 3.03 6.66691H22.6433C23.1033 6.66691 23.4767 6.29358 23.4767 5.83358C23.4767 5.37358 23.1033 5.00024 22.6433 5.00024H3.03C1.35833 5.00024 0 6.35858 0 8.03024V36.9702C0 38.6419 1.35833 40.0002 3.03 40.0002Z" fill="#001A49"/>
</svg>
