<svg width="54" height="115" viewBox="0 0 54 115" fill="none" xmlns="http://www.w3.org/2000/svg">
<g opacity="0.3">
<mask id="mask0_601_238" style="mask-type:alpha" maskUnits="userSpaceOnUse" x="12" y="0" width="12" height="11">
<path d="M18.0716 10.425C20.9592 10.425 23.3 8.09121 23.3 5.21245C23.3 2.33368 20.9592 0 18.0716 0C15.184 0 12.8432 2.33368 12.8432 5.21245C12.8432 8.09121 15.184 10.425 18.0716 10.425Z" fill="url(#paint0_linear_601_238)"/>
</mask>
<g mask="url(#mask0_601_238)">
<path d="M18.0716 10.425C20.9592 10.425 23.3 8.09121 23.3 5.21245C23.3 2.33368 20.9592 0 18.0716 0C15.184 0 12.8432 2.33368 12.8432 5.21245C12.8432 8.09121 15.184 10.425 18.0716 10.425Z" fill="url(#paint1_linear_601_238)"/>
</g>
<mask id="mask1_601_238" style="mask-type:alpha" maskUnits="userSpaceOnUse" x="43" y="0" width="11" height="11">
<path d="M48.3526 10.425C51.2402 10.425 53.581 8.09121 53.581 5.21245C53.581 2.33368 51.2402 0 48.3526 0C45.4651 0 43.1243 2.33368 43.1243 5.21245C43.1243 8.09121 45.4651 10.425 48.3526 10.425Z" fill="url(#paint2_linear_601_238)"/>
</mask>
<g mask="url(#mask1_601_238)">
<path d="M48.3526 10.425C51.2402 10.425 53.581 8.09121 53.581 5.21245C53.581 2.33368 51.2402 0 48.3526 0C45.4651 0 43.1243 2.33368 43.1243 5.21245C43.1243 8.09121 45.4651 10.425 48.3526 10.425Z" fill="url(#paint3_linear_601_238)"/>
</g>
<mask id="mask2_601_238" style="mask-type:alpha" maskUnits="userSpaceOnUse" x="12" y="26" width="12" height="11">
<path d="M18.0716 36.5958C20.9592 36.5958 23.3 34.2621 23.3 31.3833C23.3 28.5046 20.9592 26.1709 18.0716 26.1709C15.184 26.1709 12.8432 28.5046 12.8432 31.3833C12.8432 34.2621 15.184 36.5958 18.0716 36.5958Z" fill="url(#paint4_linear_601_238)"/>
</mask>
<g mask="url(#mask2_601_238)">
<path d="M18.0716 36.5958C20.9592 36.5958 23.3 34.2621 23.3 31.3833C23.3 28.5046 20.9592 26.1709 18.0716 26.1709C15.184 26.1709 12.8432 28.5046 12.8432 31.3833C12.8432 34.2621 15.184 36.5958 18.0716 36.5958Z" fill="url(#paint5_linear_601_238)"/>
</g>
<mask id="mask3_601_238" style="mask-type:alpha" maskUnits="userSpaceOnUse" x="43" y="26" width="11" height="11">
<path d="M48.3526 36.5958C51.2402 36.5958 53.581 34.2621 53.581 31.3833C53.581 28.5046 51.2402 26.1709 48.3526 26.1709C45.4651 26.1709 43.1243 28.5046 43.1243 31.3833C43.1243 34.2621 45.4651 36.5958 48.3526 36.5958Z" fill="url(#paint6_linear_601_238)"/>
</mask>
<g mask="url(#mask3_601_238)">
<path d="M48.3526 36.5958C51.2402 36.5958 53.581 34.2621 53.581 31.3833C53.581 28.5046 51.2402 26.1709 48.3526 26.1709C45.4651 26.1709 43.1243 28.5046 43.1243 31.3833C43.1243 34.2621 45.4651 36.5958 48.3526 36.5958Z" fill="url(#paint7_linear_601_238)"/>
</g>
<mask id="mask4_601_238" style="mask-type:alpha" maskUnits="userSpaceOnUse" x="12" y="52" width="12" height="11">
<path d="M18.0716 62.7126C20.9592 62.7126 23.3 60.3789 23.3 57.5001C23.3 54.6213 20.9592 52.2876 18.0716 52.2876C15.184 52.2876 12.8432 54.6213 12.8432 57.5001C12.8432 60.3789 15.184 62.7126 18.0716 62.7126Z" fill="url(#paint8_linear_601_238)"/>
</mask>
<g mask="url(#mask4_601_238)">
<path d="M18.0716 62.7126C20.9592 62.7126 23.3 60.3789 23.3 57.5001C23.3 54.6213 20.9592 52.2876 18.0716 52.2876C15.184 52.2876 12.8432 54.6213 12.8432 57.5001C12.8432 60.3789 15.184 62.7126 18.0716 62.7126Z" fill="url(#paint9_linear_601_238)"/>
</g>
<mask id="mask5_601_238" style="mask-type:alpha" maskUnits="userSpaceOnUse" x="43" y="52" width="11" height="11">
<path d="M48.3526 62.7126C51.2402 62.7126 53.581 60.3789 53.581 57.5001C53.581 54.6213 51.2402 52.2876 48.3526 52.2876C45.4651 52.2876 43.1243 54.6213 43.1243 57.5001C43.1243 60.3789 45.4651 62.7126 48.3526 62.7126Z" fill="url(#paint10_linear_601_238)"/>
</mask>
<g mask="url(#mask5_601_238)">
<path d="M48.3526 62.7126C51.2402 62.7126 53.581 60.3789 53.581 57.5001C53.581 54.6213 51.2402 52.2876 48.3526 52.2876C45.4651 52.2876 43.1243 54.6213 43.1243 57.5001C43.1243 60.3789 45.4651 62.7126 48.3526 62.7126Z" fill="url(#paint11_linear_601_238)"/>
</g>
<mask id="mask6_601_238" style="mask-type:alpha" maskUnits="userSpaceOnUse" x="12" y="78" width="12" height="11">
<path d="M18.0716 88.8835C20.9592 88.8835 23.3 86.5497 23.3 83.6709C23.3 80.7922 20.9592 78.4585 18.0716 78.4585C15.184 78.4585 12.8432 80.7922 12.8432 83.6709C12.8432 86.5497 15.184 88.8835 18.0716 88.8835Z" fill="url(#paint12_linear_601_238)"/>
</mask>
<g mask="url(#mask6_601_238)">
<path d="M18.0716 88.8835C20.9592 88.8835 23.3 86.5497 23.3 83.6709C23.3 80.7922 20.9592 78.4585 18.0716 78.4585C15.184 78.4585 12.8432 80.7922 12.8432 83.6709C12.8432 86.5497 15.184 88.8835 18.0716 88.8835Z" fill="url(#paint13_linear_601_238)"/>
</g>
<mask id="mask7_601_238" style="mask-type:alpha" maskUnits="userSpaceOnUse" x="43" y="78" width="11" height="11">
<path d="M48.3526 88.8835C51.2402 88.8835 53.581 86.5497 53.581 83.6709C53.581 80.7922 51.2402 78.4585 48.3526 78.4585C45.4651 78.4585 43.1243 80.7922 43.1243 83.6709C43.1243 86.5497 45.4651 88.8835 48.3526 88.8835Z" fill="url(#paint14_linear_601_238)"/>
</mask>
<g mask="url(#mask7_601_238)">
<path d="M48.3526 88.8835C51.2402 88.8835 53.581 86.5497 53.581 83.6709C53.581 80.7922 51.2402 78.4585 48.3526 78.4585C45.4651 78.4585 43.1243 80.7922 43.1243 83.6709C43.1243 86.5497 45.4651 88.8835 48.3526 88.8835Z" fill="url(#paint15_linear_601_238)"/>
</g>
<mask id="mask8_601_238" style="mask-type:alpha" maskUnits="userSpaceOnUse" x="12" y="104" width="12" height="11">
<path d="M18.0716 115C20.9592 115 23.3 112.666 23.3 109.788C23.3 106.909 20.9592 104.575 18.0716 104.575C15.184 104.575 12.8432 106.909 12.8432 109.788C12.8432 112.666 15.184 115 18.0716 115Z" fill="url(#paint16_linear_601_238)"/>
</mask>
<g mask="url(#mask8_601_238)">
<path d="M18.0716 115C20.9592 115 23.3 112.666 23.3 109.788C23.3 106.909 20.9592 104.575 18.0716 104.575C15.184 104.575 12.8432 106.909 12.8432 109.788C12.8432 112.666 15.184 115 18.0716 115Z" fill="url(#paint17_linear_601_238)"/>
</g>
<mask id="mask9_601_238" style="mask-type:alpha" maskUnits="userSpaceOnUse" x="43" y="104" width="11" height="11">
<path d="M48.3526 115C51.2402 115 53.581 112.666 53.581 109.788C53.581 106.909 51.2402 104.575 48.3526 104.575C45.4651 104.575 43.1243 106.909 43.1243 109.788C43.1243 112.666 45.4651 115 48.3526 115Z" fill="url(#paint18_linear_601_238)"/>
</mask>
<g mask="url(#mask9_601_238)">
<path d="M48.3526 115C51.2402 115 53.581 112.666 53.581 109.788C53.581 106.909 51.2402 104.575 48.3526 104.575C45.4651 104.575 43.1243 106.909 43.1243 109.788C43.1243 112.666 45.4651 115 48.3526 115Z" fill="url(#paint19_linear_601_238)"/>
</g>
</g>
<defs>
<linearGradient id="paint0_linear_601_238" x1="55.6091" y1="100.259" x2="-15.7925" y2="-81.5444" gradientUnits="userSpaceOnUse">
<stop/>
<stop offset="1" stop-color="white"/>
</linearGradient>
<linearGradient id="paint1_linear_601_238" x1="55.6091" y1="100.259" x2="-15.7925" y2="-81.5444" gradientUnits="userSpaceOnUse">
<stop stop-color="#97C3F9"/>
<stop offset="1" stop-color="#93C1F9"/>
</linearGradient>
<linearGradient id="paint2_linear_601_238" x1="81.8135" y1="89.9679" x2="10.4119" y2="-91.8359" gradientUnits="userSpaceOnUse">
<stop/>
<stop offset="1" stop-color="white"/>
</linearGradient>
<linearGradient id="paint3_linear_601_238" x1="81.8135" y1="89.9679" x2="10.4119" y2="-91.8359" gradientUnits="userSpaceOnUse">
<stop stop-color="#97C3F9"/>
<stop offset="1" stop-color="#93C1F9"/>
</linearGradient>
<linearGradient id="paint4_linear_601_238" x1="46.6667" y1="103.771" x2="-24.7337" y2="-78.0318" gradientUnits="userSpaceOnUse">
<stop/>
<stop offset="1" stop-color="white"/>
</linearGradient>
<linearGradient id="paint5_linear_601_238" x1="46.6667" y1="103.771" x2="-24.7337" y2="-78.0318" gradientUnits="userSpaceOnUse">
<stop stop-color="#97C3F9"/>
<stop offset="1" stop-color="#93C1F9"/>
</linearGradient>
<linearGradient id="paint6_linear_601_238" x1="72.8711" y1="93.4793" x2="1.47073" y2="-88.3232" gradientUnits="userSpaceOnUse">
<stop/>
<stop offset="1" stop-color="white"/>
</linearGradient>
<linearGradient id="paint7_linear_601_238" x1="72.8711" y1="93.4793" x2="1.47073" y2="-88.3232" gradientUnits="userSpaceOnUse">
<stop stop-color="#97C3F9"/>
<stop offset="1" stop-color="#93C1F9"/>
</linearGradient>
<linearGradient id="paint8_linear_601_238" x1="37.7243" y1="107.283" x2="-33.6773" y2="-74.5204" gradientUnits="userSpaceOnUse">
<stop/>
<stop offset="1" stop-color="white"/>
</linearGradient>
<linearGradient id="paint9_linear_601_238" x1="37.7243" y1="107.283" x2="-33.6773" y2="-74.5204" gradientUnits="userSpaceOnUse">
<stop stop-color="#97C3F9"/>
<stop offset="1" stop-color="#93C1F9"/>
</linearGradient>
<linearGradient id="paint10_linear_601_238" x1="63.9287" y1="96.992" x2="-7.47294" y2="-84.8119" gradientUnits="userSpaceOnUse">
<stop/>
<stop offset="1" stop-color="white"/>
</linearGradient>
<linearGradient id="paint11_linear_601_238" x1="63.9287" y1="96.992" x2="-7.47294" y2="-84.8119" gradientUnits="userSpaceOnUse">
<stop stop-color="#97C3F9"/>
<stop offset="1" stop-color="#93C1F9"/>
</linearGradient>
<linearGradient id="paint12_linear_601_238" x1="28.782" y1="110.796" x2="-42.6196" y2="-71.0083" gradientUnits="userSpaceOnUse">
<stop/>
<stop offset="1" stop-color="white"/>
</linearGradient>
<linearGradient id="paint13_linear_601_238" x1="28.782" y1="110.796" x2="-42.6196" y2="-71.0083" gradientUnits="userSpaceOnUse">
<stop stop-color="#97C3F9"/>
<stop offset="1" stop-color="#93C1F9"/>
</linearGradient>
<linearGradient id="paint14_linear_601_238" x1="54.9863" y1="100.504" x2="-16.4153" y2="-81.2999" gradientUnits="userSpaceOnUse">
<stop/>
<stop offset="1" stop-color="white"/>
</linearGradient>
<linearGradient id="paint15_linear_601_238" x1="54.9863" y1="100.504" x2="-16.4153" y2="-81.2999" gradientUnits="userSpaceOnUse">
<stop stop-color="#97C3F9"/>
<stop offset="1" stop-color="#93C1F9"/>
</linearGradient>
<linearGradient id="paint16_linear_601_238" x1="19.8397" y1="114.308" x2="-51.562" y2="-67.4962" gradientUnits="userSpaceOnUse">
<stop/>
<stop offset="1" stop-color="white"/>
</linearGradient>
<linearGradient id="paint17_linear_601_238" x1="19.8397" y1="114.308" x2="-51.562" y2="-67.4962" gradientUnits="userSpaceOnUse">
<stop stop-color="#97C3F9"/>
<stop offset="1" stop-color="#93C1F9"/>
</linearGradient>
<linearGradient id="paint18_linear_601_238" x1="46.044" y1="104.016" x2="-25.3576" y2="-77.7877" gradientUnits="userSpaceOnUse">
<stop/>
<stop offset="1" stop-color="white"/>
</linearGradient>
<linearGradient id="paint19_linear_601_238" x1="46.044" y1="104.016" x2="-25.3576" y2="-77.7877" gradientUnits="userSpaceOnUse">
<stop stop-color="#97C3F9"/>
<stop offset="1" stop-color="#93C1F9"/>
</linearGradient>
</defs>
</svg>
