<svg width="924" height="190" viewBox="0 0 924 190" fill="none" xmlns="http://www.w3.org/2000/svg">
<path opacity="0.8" d="M0.600001 8.99999H64.2C79.4 8.99999 92.8 11.9333 104.4 17.8C116.133 23.5333 125.2 31.6667 131.6 42.2C138.133 52.7333 141.4 65 141.4 79C141.4 93 138.133 105.267 131.6 115.8C125.2 126.333 116.133 134.533 104.4 140.4C92.8 146.133 79.4 149 64.2 149H0.600001V8.99999ZM62.6 122.4C76.6 122.4 87.7333 118.533 96 110.8C104.4 102.933 108.6 92.3333 108.6 79C108.6 65.6667 104.4 55.1333 96 47.4C87.7333 39.5333 76.6 35.6 62.6 35.6H33V122.4H62.6ZM296.434 41.4L247.834 155.6C242.901 168 236.768 176.733 229.434 181.8C222.234 186.867 213.501 189.4 203.234 189.4C197.634 189.4 192.101 188.533 186.634 186.8C181.168 185.067 176.701 182.667 173.234 179.6L184.634 157.4C187.034 159.533 189.768 161.2 192.834 162.4C196.034 163.6 199.168 164.2 202.234 164.2C206.501 164.2 209.968 163.133 212.634 161C215.301 159 217.701 155.6 219.834 150.8L220.234 149.8L173.634 41.4H205.834L236.034 114.4L266.434 41.4H296.434ZM369.803 150.6C360.87 150.6 352.136 149.533 343.603 147.4C335.07 145.133 328.27 142.333 323.203 139L333.603 116.6C338.403 119.667 344.203 122.2 351.003 124.2C357.803 126.067 364.47 127 371.003 127C384.203 127 390.803 123.733 390.803 117.2C390.803 114.133 389.003 111.933 385.403 110.6C381.803 109.267 376.27 108.133 368.803 107.2C360.003 105.867 352.736 104.333 347.003 102.6C341.27 100.867 336.27 97.8 332.003 93.4C327.87 89 325.803 82.7333 325.803 74.6C325.803 67.8 327.736 61.8 331.603 56.6C335.603 51.2667 341.336 47.1333 348.803 44.2C356.403 41.2667 365.336 39.8 375.603 39.8C383.203 39.8 390.736 40.6667 398.203 42.4C405.803 44 412.07 46.2667 417.003 49.2L406.603 71.4C397.136 66.0667 386.803 63.4 375.603 63.4C368.936 63.4 363.936 64.3333 360.603 66.2C357.27 68.0667 355.603 70.4667 355.603 73.4C355.603 76.7333 357.403 79.0667 361.003 80.4C364.603 81.7333 370.336 83 378.203 84.2C387.003 85.6667 394.203 87.2667 399.803 89C405.403 90.6 410.27 93.6 414.403 98C418.536 102.4 420.603 108.533 420.603 116.4C420.603 123.067 418.603 129 414.603 134.2C410.603 139.4 404.736 143.467 397.003 146.4C389.403 149.2 380.336 150.6 369.803 150.6ZM465.853 0.599991H497.053V149H465.853V0.599991ZM657.409 95.6C657.409 96 657.209 98.8 656.809 104H575.409C576.876 110.667 580.343 115.933 585.809 119.8C591.276 123.667 598.076 125.6 606.209 125.6C611.809 125.6 616.743 124.8 621.009 123.2C625.409 121.467 629.476 118.8 633.209 115.2L649.809 133.2C639.676 144.8 624.876 150.6 605.409 150.6C593.276 150.6 582.543 148.267 573.209 143.6C563.876 138.8 556.676 132.2 551.609 123.8C546.543 115.4 544.009 105.867 544.009 95.2C544.009 84.6667 546.476 75.2 551.409 66.8C556.476 58.2667 563.343 51.6667 572.009 47C580.809 42.2 590.609 39.8 601.409 39.8C611.943 39.8 621.476 42.0667 630.009 46.6C638.543 51.1333 645.209 57.6667 650.009 66.2C654.943 74.6 657.409 84.4 657.409 95.6ZM601.609 63.4C594.543 63.4 588.609 65.4 583.809 69.4C579.009 73.4 576.076 78.8667 575.009 85.8H628.009C626.943 79 624.009 73.6 619.209 69.6C614.409 65.4667 608.543 63.4 601.609 63.4ZM740.381 150.6C731.448 150.6 722.715 149.533 714.181 147.4C705.648 145.133 698.848 142.333 693.781 139L704.181 116.6C708.981 119.667 714.781 122.2 721.581 124.2C728.381 126.067 735.048 127 741.581 127C754.781 127 761.381 123.733 761.381 117.2C761.381 114.133 759.581 111.933 755.981 110.6C752.381 109.267 746.848 108.133 739.381 107.2C730.581 105.867 723.315 104.333 717.581 102.6C711.848 100.867 706.848 97.8 702.581 93.4C698.448 89 696.381 82.7333 696.381 74.6C696.381 67.8 698.315 61.8 702.181 56.6C706.181 51.2667 711.915 47.1333 719.381 44.2C726.981 41.2667 735.915 39.8 746.181 39.8C753.781 39.8 761.315 40.6667 768.781 42.4C776.381 44 782.648 46.2667 787.581 49.2L777.181 71.4C767.715 66.0667 757.381 63.4 746.181 63.4C739.515 63.4 734.515 64.3333 731.181 66.2C727.848 68.0667 726.181 70.4667 726.181 73.4C726.181 76.7333 727.981 79.0667 731.581 80.4C735.181 81.7333 740.915 83 748.781 84.2C757.581 85.6667 764.781 87.2667 770.381 89C775.981 90.6 780.848 93.6 784.981 98C789.115 102.4 791.181 108.533 791.181 116.4C791.181 123.067 789.181 129 785.181 134.2C781.181 139.4 775.315 143.467 767.581 146.4C759.981 149.2 750.915 150.6 740.381 150.6ZM872.631 150.6C863.698 150.6 854.965 149.533 846.431 147.4C837.898 145.133 831.098 142.333 826.031 139L836.431 116.6C841.231 119.667 847.031 122.2 853.831 124.2C860.631 126.067 867.298 127 873.831 127C887.031 127 893.631 123.733 893.631 117.2C893.631 114.133 891.831 111.933 888.231 110.6C884.631 109.267 879.098 108.133 871.631 107.2C862.831 105.867 855.565 104.333 849.831 102.6C844.098 100.867 839.098 97.8 834.831 93.4C830.698 89 828.631 82.7333 828.631 74.6C828.631 67.8 830.565 61.8 834.431 56.6C838.431 51.2667 844.165 47.1333 851.631 44.2C859.231 41.2667 868.165 39.8 878.431 39.8C886.031 39.8 893.565 40.6667 901.031 42.4C908.631 44 914.898 46.2667 919.831 49.2L909.431 71.4C899.965 66.0667 889.631 63.4 878.431 63.4C871.765 63.4 866.765 64.3333 863.431 66.2C860.098 68.0667 858.431 70.4667 858.431 73.4C858.431 76.7333 860.231 79.0667 863.831 80.4C867.431 81.7333 873.165 83 881.031 84.2C889.831 85.6667 897.031 87.2667 902.631 89C908.231 90.6 913.098 93.6 917.231 98C921.365 102.4 923.431 108.533 923.431 116.4C923.431 123.067 921.431 129 917.431 134.2C913.431 139.4 907.565 143.467 899.831 146.4C892.231 149.2 883.165 150.6 872.631 150.6Z" fill="white" fill-opacity="0.2"/>
</svg>
